<svg data-v-d3f97b9e="" xmlns="http://www.w3.org/2000/svg" viewBox="0 0 421 90"><!----><!----><!----><g data-v-d3f97b9e="" id="b277dc61-2237-4680-b038-110bf00de0d6" fill="#241030" transform="matrix(5.9940058569511425,0,0,5.9940058569511425,105.7291668369007,-8.496502462880521)"><path d="M9.70 6.80C9.48 6.19 9.16 5.68 8.74 5.25C8.32 4.82 7.83 4.48 7.25 4.26C6.68 4.03 6.02 3.92 5.32 3.92L1.89 3.92L0.70 3.92L0.70 4.19C0.70 4.34 0.80 4.42 0.98 4.44L1.12 4.44C1.19 4.44 1.29 4.45 1.43 4.45C1.57 4.45 1.72 4.47 1.89 4.47L1.89 13.26C1.72 13.26 1.57 13.27 1.43 13.27C1.29 13.27 1.19 13.29 1.12 13.29L0.98 13.29C0.80 13.30 0.70 13.38 0.70 13.54L0.70 13.82L1.89 13.82L5.32 13.82C6.02 13.82 6.68 13.71 7.25 13.48C7.83 13.26 8.32 12.92 8.74 12.49C9.16 12.05 9.48 11.54 9.70 10.92C9.93 10.30 10.05 9.63 10.05 8.86C10.05 8.11 9.93 7.42 9.70 6.80ZM9.02 10.72C8.82 11.27 8.57 11.72 8.22 12.10C7.87 12.47 7.45 12.75 6.96 12.95C6.47 13.15 5.92 13.24 5.32 13.24L2.60 13.24L2.60 4.49L5.32 4.49C5.92 4.49 6.47 4.59 6.96 4.79C7.45 4.98 7.87 5.26 8.22 5.64C8.57 6.02 8.82 6.47 9.02 7.01C9.21 7.56 9.31 8.18 9.31 8.86C9.31 9.56 9.21 10.18 9.02 10.72ZM14.39 6.73C13.90 6.73 13.45 6.83 13.06 7.00C12.67 7.17 12.35 7.41 12.08 7.71C11.82 8.02 11.61 8.39 11.47 8.81C11.33 9.23 11.24 9.69 11.24 10.19C11.24 10.78 11.33 11.31 11.48 11.77C11.63 12.24 11.84 12.61 12.12 12.94C12.40 13.26 12.74 13.50 13.13 13.66C13.52 13.83 13.96 13.90 14.43 13.90C14.70 13.90 14.97 13.89 15.22 13.83C15.47 13.78 15.72 13.71 15.95 13.62C16.17 13.54 16.38 13.44 16.56 13.31C16.74 13.19 16.90 13.06 17.01 12.92L16.83 12.70C16.80 12.66 16.74 12.63 16.69 12.63C16.65 12.63 16.56 12.66 16.46 12.74C16.37 12.82 16.23 12.91 16.04 13.01C15.88 13.10 15.65 13.17 15.40 13.26C15.15 13.34 14.84 13.38 14.49 13.38C14.10 13.38 13.75 13.31 13.43 13.17C13.10 13.03 12.84 12.84 12.61 12.57C12.39 12.31 12.22 11.97 12.10 11.58C11.97 11.19 11.91 10.71 11.91 10.19L11.91 10.07L16.94 10.07C17.01 10.07 17.05 10.05 17.08 10.01C17.11 9.97 17.14 9.90 17.14 9.80C17.14 9.31 17.07 8.88 16.93 8.50C16.79 8.12 16.60 7.78 16.35 7.53C16.11 7.28 15.82 7.08 15.48 6.94C15.15 6.80 14.78 6.73 14.39 6.73ZM14.41 7.24C14.73 7.24 15.01 7.29 15.27 7.41C15.54 7.52 15.76 7.67 15.95 7.88C16.13 8.09 16.28 8.33 16.38 8.62C16.48 8.92 16.53 9.25 16.53 9.63L11.94 9.63C11.98 9.27 12.07 8.93 12.19 8.64C12.32 8.34 12.49 8.09 12.70 7.88C12.91 7.67 13.16 7.52 13.44 7.41C13.72 7.29 14.04 7.24 14.41 7.24ZM24.77 6.86L24.25 6.86L22.85 6.86L22.85 7.13C22.85 7.28 22.95 7.36 23.13 7.38L23.21 7.38C23.24 7.38 23.27 7.39 23.31 7.39L23.52 7.39C23.62 7.39 23.73 7.41 23.86 7.41L21.71 12.52C21.67 12.61 21.63 12.73 21.60 12.82C21.57 12.92 21.56 13.02 21.53 13.12C21.52 13.09 21.52 13.05 21.50 12.98C21.49 12.91 21.48 12.85 21.46 12.82C21.43 12.73 21.41 12.63 21.36 12.52L19.22 7.41C19.38 7.41 19.53 7.39 19.64 7.39C19.75 7.39 19.84 7.38 19.87 7.38L19.95 7.38C20.13 7.36 20.23 7.28 20.23 7.13L20.23 6.86L18.82 6.86L18.30 6.86L17.79 6.86L17.79 7.13C17.79 7.28 17.88 7.36 18.06 7.38C18.06 7.38 18.21 7.38 18.52 7.39L21.24 13.82L21.83 13.82L24.53 7.39L24.79 7.39C24.88 7.39 24.92 7.38 24.95 7.38L25.02 7.38C25.20 7.36 25.30 7.28 25.30 7.13L25.30 6.86ZM32.72 11.97C32.52 11.97 32.44 12.08 32.42 12.31C32.42 12.32 32.42 12.38 32.41 12.43C32.40 12.49 32.40 12.59 32.38 12.71C32.37 12.84 32.35 13.01 32.34 13.20L28.25 13.20L28.25 4.47C28.42 4.47 28.56 4.45 28.70 4.45C28.84 4.45 28.95 4.44 29.02 4.44L29.15 4.44C29.33 4.42 29.43 4.34 29.43 4.19L29.43 3.92L28.25 3.92L27.54 3.92L26.35 3.92L26.35 4.19C26.35 4.34 26.45 4.42 26.63 4.44L26.77 4.44C26.84 4.44 26.94 4.45 27.08 4.45C27.22 4.45 27.37 4.47 27.54 4.47L27.54 13.26C27.37 13.26 27.22 13.27 27.08 13.27C26.94 13.27 26.84 13.29 26.77 13.29L26.63 13.29C26.45 13.30 26.35 13.38 26.35 13.54L26.35 13.82L27.54 13.82L32.82 13.82L32.94 13.82L33.07 13.82L33.07 13.55L33.07 12.99L33.07 11.97L32.79 11.97ZM41.30 13.29L41.23 13.29L41.12 13.29C41.08 13.29 41.01 13.27 40.91 13.27C40.81 13.27 40.70 13.26 40.57 13.26L40.57 6.85L39.90 6.86L38.89 6.86L38.89 7.13C38.89 7.28 38.99 7.36 39.17 7.38L39.24 7.38C39.27 7.38 39.31 7.39 39.35 7.39L39.56 7.39C39.66 7.39 39.77 7.41 39.90 7.41L39.90 12.08C39.59 12.49 39.23 12.81 38.84 13.05C38.44 13.27 38.02 13.40 37.58 13.40C36.96 13.40 36.50 13.20 36.20 12.84C35.91 12.46 35.76 11.96 35.76 11.30L35.76 6.85L35.08 6.86L34.08 6.86L34.08 7.13C34.08 7.28 34.17 7.36 34.36 7.38L34.43 7.38C34.45 7.38 34.50 7.39 34.54 7.39L34.75 7.39C34.85 7.39 34.96 7.41 35.08 7.41L35.08 11.30C35.08 11.70 35.14 12.07 35.24 12.39C35.34 12.71 35.48 12.99 35.67 13.22C35.87 13.44 36.09 13.62 36.39 13.75C36.68 13.87 37.02 13.93 37.41 13.93C37.93 13.93 38.40 13.80 38.82 13.57C39.24 13.33 39.62 13.01 39.94 12.60L40.00 13.64C40.00 13.76 40.08 13.82 40.21 13.82L40.57 13.82L41.58 13.82L41.58 13.54C41.58 13.38 41.48 13.30 41.30 13.29ZM47.42 11.06C47.31 10.86 47.17 10.71 46.98 10.57C46.80 10.43 46.59 10.32 46.37 10.23C46.14 10.15 45.89 10.05 45.65 9.98C45.42 9.91 45.18 9.83 44.94 9.76C44.72 9.69 44.51 9.59 44.32 9.49C44.14 9.39 44.00 9.27 43.89 9.13C43.78 8.99 43.72 8.81 43.72 8.58C43.72 8.40 43.75 8.23 43.83 8.08C43.92 7.92 44.03 7.77 44.18 7.64C44.32 7.52 44.51 7.43 44.72 7.36C44.93 7.29 45.15 7.25 45.40 7.25C45.77 7.25 46.13 7.31 46.51 7.43C46.52 7.60 46.54 7.77 46.55 7.92C46.56 8.08 46.56 8.19 46.58 8.27C46.59 8.36 46.59 8.43 46.59 8.44C46.61 8.67 46.70 8.78 46.90 8.78L47.24 8.78L47.24 7.11C46.51 6.86 45.89 6.75 45.39 6.75C45.04 6.75 44.72 6.80 44.44 6.90C44.16 7.00 43.90 7.14 43.71 7.31C43.51 7.48 43.36 7.69 43.25 7.91C43.13 8.13 43.09 8.37 43.09 8.62C43.09 8.92 43.15 9.16 43.26 9.35C43.37 9.55 43.51 9.70 43.69 9.84C43.88 9.98 44.07 10.09 44.31 10.18C44.53 10.26 44.77 10.35 45.02 10.42C45.26 10.49 45.50 10.57 45.74 10.64C45.96 10.71 46.17 10.81 46.35 10.92C46.54 11.03 46.69 11.16 46.80 11.31C46.91 11.47 46.97 11.65 46.97 11.89C46.97 12.10 46.93 12.29 46.86 12.49C46.77 12.68 46.66 12.84 46.51 12.98C46.35 13.12 46.17 13.23 45.95 13.31C45.72 13.40 45.47 13.44 45.18 13.44C44.65 13.44 44.20 13.37 43.82 13.22C43.81 13.03 43.79 12.87 43.78 12.71C43.76 12.56 43.76 12.43 43.75 12.35C43.74 12.26 43.74 12.19 43.74 12.18C43.72 11.96 43.62 11.84 43.43 11.84L43.09 11.84L43.09 13.54C43.76 13.79 44.45 13.93 45.15 13.93C45.54 13.93 45.88 13.87 46.19 13.76C46.49 13.65 46.75 13.50 46.96 13.30C47.17 13.10 47.32 12.89 47.43 12.63C47.54 12.36 47.60 12.08 47.60 11.77C47.60 11.49 47.53 11.26 47.42 11.06ZM51.06 13.93C51.35 13.93 51.63 13.86 51.91 13.75C52.18 13.64 52.40 13.48 52.58 13.29L52.40 12.98C52.36 12.94 52.33 12.92 52.29 12.92C52.26 12.92 52.21 12.94 52.15 12.99C52.09 13.05 52.02 13.09 51.94 13.15C51.86 13.20 51.74 13.26 51.62 13.31C51.49 13.37 51.37 13.38 51.20 13.38C51.06 13.38 50.92 13.36 50.81 13.31C50.69 13.27 50.60 13.20 50.51 13.12C50.43 13.03 50.36 12.92 50.30 12.78C50.25 12.64 50.23 12.49 50.23 12.29L50.23 7.57L52.43 7.57L52.43 7.07L50.23 7.07L50.23 4.41L49.91 4.41C49.85 4.41 49.83 4.44 49.80 4.47C49.77 4.49 49.74 4.54 49.74 4.58L49.57 7.07L48.38 7.15L48.38 7.41C48.38 7.46 48.40 7.49 48.43 7.52C48.45 7.55 48.51 7.57 48.57 7.57L49.56 7.57L49.56 12.33C49.56 12.88 49.69 13.27 49.95 13.54C50.22 13.80 50.58 13.93 51.06 13.93Z"></path></g><linearGradient data-v-d3f97b9e="" gradientTransform="rotate(25)" id="7ab2a765-5208-47f5-9194-c6484e8e5574" x1="0%" y1="0%" x2="100%" y2="0%"><stop data-v-d3f97b9e="" offset="0%" style="stop-color: rgb(73, 36, 126); stop-opacity: 1;"></stop><stop data-v-d3f97b9e="" offset="100%" style="stop-color: rgb(170, 73, 199); stop-opacity: 1;"></stop></linearGradient><g data-v-d3f97b9e="" id="1e3185c7-d51d-4342-b8e4-519b9f755c02" transform="matrix(1.4999995231629935,0,0,1.4999995231629935,0.025016592810239047,0)" stroke="none" fill="url(#7ab2a765-5208-47f5-9194-c6484e8e5574)"><g fill-rule="evenodd"><path d="M5 6a1 1 0 1 0 0-2 1 1 0 0 0 0 2M8 55a1 1 0 1 0 0 2 1 1 0 0 0 0-2M3 48a1 1 0 1 0 0 2 1 1 0 0 0 0-2M14 3a1 1 0 1 0 0-2 1 1 0 0 0 0 2M54 6a1 1 0 1 0 0-2 1 1 0 0 0 0 2M42.618 30a1 1 0 0 1 1-1h16.357a29.828 29.828 0 0 0-1.695-9H32.263a1 1 0 1 1 0-2h25.224a29.825 29.825 0 0 0-2.129-4H43a1 1 0 0 1 0-2h10.984C48.505 4.718 39.794 0 30 0 17.723 0 7.151 7.416 2.513 18h23.148a1 1 0 0 1 0 2H1.72a29.828 29.828 0 0 0-1.695 9h9.712a1 1 0 1 1 0 2H.025a29.8 29.8 0 0 0 2.073 10h21.845a1 1 0 0 1 0 2H2.966a30.162 30.162 0 0 0 6.666 9h24.174a1 1 0 0 1 0 2H12.021A29.84 29.84 0 0 0 30 60a29.84 29.84 0 0 0 17.979-6h-7.776a1 1 0 0 1 0-2h10.165a30.162 30.162 0 0 0 6.666-9h-26.86a1 1 0 0 1 0-2h27.728a29.8 29.8 0 0 0 2.073-10H43.618a1 1 0 0 1-1-1zM34.567 6H42.9a1 1 0 1 1 0 2h-8.333a1 1 0 0 1 0-2zM16.206 7a1 1 0 0 1 1-1h10.417a1 1 0 0 1 0 2H17.206a1 1 0 0 1-1-1zM24 14a1 1 0 0 1 0-2h10a1 1 0 0 1 0 2H24zm1 9h10a1 1 0 0 1 0 2H25a1 1 0 0 1 0-2zM6 25a1 1 0 0 1 0-2h10a1 1 0 0 1 0 2H6zm9.349 5a1 1 0 0 1 1-1h20.277a1 1 0 0 1 0 2H16.349a1 1 0 0 1-1-1zm21.928 16a1 1 0 0 1 0 2H17a1 1 0 0 1 0-2h20.277zM44 36a1 1 0 0 1-1 1H22.723a1 1 0 0 1 0-2H43a1 1 0 0 1 1 1z"></path></g></g><!----></svg>